<svg width="1137" height="57" viewBox="0 0 1137 57" fill="none" xmlns="http://www.w3.org/2000/svg">
<g opacity="0.7">
<path d="M78.1019 44.705C76.721 44.7818 75.3552 44.3793 74.2248 43.5626C73.7524 43.2036 73.3724 42.7321 73.1176 42.1889C72.8627 41.6456 72.7408 41.0469 72.7621 40.4445V18.3804C72.7509 18.287 72.7605 18.1922 72.7903 18.1032C72.8202 18.0142 72.8694 17.9333 72.9344 17.8667C72.9993 17.8002 73.0782 17.7497 73.165 17.7191C73.2518 17.6885 73.3443 17.6786 73.4354 17.6902H77.3358C77.7769 17.6902 77.9859 17.9282 77.9859 18.3804V38.7308C77.9859 39.6353 78.3805 40.0875 79.1931 40.0875C79.5376 40.1021 79.8822 40.062 80.2146 39.9685C80.679 39.9685 80.9344 40.1113 80.9576 40.5398L81.3058 43.515C81.3225 43.6017 81.321 43.6911 81.3011 43.7772C81.2813 43.8632 81.2437 43.9439 81.191 44.0138C81.1382 44.0838 81.0713 44.1413 80.995 44.1825C80.9187 44.2237 80.8347 44.2477 80.7486 44.2528C79.8943 44.5421 79.0016 44.6947 78.1019 44.705Z" fill="#394149"/>
<path d="M96.1036 42.3293C94.3598 43.8709 92.1686 44.7142 89.9067 44.7142C87.6448 44.7142 85.4535 43.8709 83.7098 42.3293C82.1772 40.6738 81.3174 38.4378 81.3174 36.1076C81.3174 33.7773 82.1772 31.5413 83.7098 29.8858C85.4569 28.3522 87.6469 27.514 89.9067 27.514C92.1665 27.514 94.3565 28.3522 96.1036 29.8858C97.6009 31.5566 98.4368 33.7818 98.4368 36.0965C98.4368 38.4113 97.6009 40.6365 96.1036 42.3072V42.3293ZM86.9735 39.4119C87.7827 40.1962 88.8355 40.6306 89.9273 40.6306C91.0192 40.6306 92.072 40.1962 92.8812 39.4119C93.6136 38.5108 94.0169 37.357 94.0169 36.1628C94.0169 34.9687 93.6136 33.8148 92.8812 32.9138C92.072 32.1295 91.0192 31.6951 89.9273 31.6951C88.8355 31.6951 87.7827 32.1295 86.9735 32.9138C86.2411 33.8148 85.8378 34.9687 85.8378 36.1628C85.8378 37.357 86.2411 38.5108 86.9735 39.4119Z" fill="#394149"/>
<path d="M119.255 28.0718C119.646 28.0718 119.832 28.3117 119.832 28.7675V45.9685C119.868 47.1295 119.681 48.2852 119.286 49.3517C118.891 50.4182 118.297 51.3686 117.547 52.134C115.882 53.788 113.742 54.6453 111.556 54.5331C109.582 54.6139 107.635 53.9858 105.977 52.7338C105.27 52.1922 104.665 51.4868 104.201 50.6614C103.737 49.836 103.424 48.9082 103.281 47.9357C103.281 47.4559 103.281 47.24 103.836 47.24H107.295C107.442 47.2458 107.584 47.301 107.705 47.3989C107.825 47.4968 107.919 47.6333 107.974 47.7918C108.199 48.5204 108.646 49.1269 109.23 49.4951C109.942 49.9232 110.734 50.1376 111.536 50.1188C112.019 50.1497 112.503 50.068 112.959 49.8785C113.415 49.689 113.834 49.3956 114.191 49.0153C114.518 48.6174 114.772 48.1466 114.938 47.6313C115.104 47.1159 115.179 46.5666 115.159 46.0165V44.5051C113.92 45.5665 112.413 46.1153 110.877 46.0645C109.801 46.1101 108.729 45.9019 107.725 45.4526C106.72 45.0032 105.804 44.3219 105.03 43.4495C103.546 41.6602 102.717 39.2689 102.717 36.7803C102.717 34.2916 103.546 31.9003 105.03 30.111C105.807 29.2463 106.725 28.5716 107.729 28.1266C108.733 27.6816 109.803 27.4754 110.877 27.52C112.458 27.4714 114.005 28.0556 115.262 29.1753V28.7915C115.252 28.6995 115.26 28.6063 115.286 28.5185C115.311 28.4308 115.353 28.3507 115.408 28.2841C115.463 28.2174 115.53 28.166 115.605 28.1334C115.679 28.1009 115.759 28.088 115.838 28.0958L119.255 28.0718ZM111.268 41.7942C111.798 41.8134 112.326 41.6965 112.813 41.4519C113.3 41.2073 113.736 40.841 114.088 40.3788C114.773 39.3488 115.144 38.083 115.144 36.7803C115.144 35.4775 114.773 34.2117 114.088 33.1817C113.737 32.7257 113.304 32.3649 112.821 32.1245C112.337 31.8841 111.814 31.77 111.289 31.7903C110.752 31.7706 110.218 31.887 109.724 32.1314C109.23 32.3758 108.788 32.7423 108.427 33.2057C107.669 34.191 107.27 35.4819 107.315 36.8042C107.278 38.1136 107.668 39.3909 108.407 40.3788C108.768 40.8409 109.211 41.2066 109.705 41.4509C110.198 41.6952 110.732 41.8123 111.268 41.7942Z" fill="#394149"/>
<path d="M136.754 42.3397C135.001 43.8751 132.804 44.7142 130.537 44.7142C128.269 44.7142 126.072 43.8751 124.319 42.3397C122.815 40.6634 121.976 38.4319 121.976 36.1109C121.976 33.7898 122.815 31.5584 124.319 29.882C126.074 28.3506 128.27 27.514 130.537 27.514C132.803 27.514 135 28.3506 136.754 29.882C138.257 31.5547 139.095 33.7824 139.095 36.0998C139.095 38.4172 138.257 40.6449 136.754 42.3176V42.3397ZM127.573 39.4189C127.97 39.8225 128.439 40.1378 128.951 40.3467C129.463 40.5556 130.009 40.6539 130.557 40.6359C131.102 40.651 131.644 40.5512 132.153 40.3424C132.661 40.1336 133.126 39.8198 133.521 39.4189C134.244 38.5108 134.641 37.3579 134.641 36.1662C134.641 34.9745 134.244 33.8216 133.521 32.9135C133.126 32.5126 132.661 32.1988 132.153 31.99C131.644 31.7812 131.102 31.6814 130.557 31.6965C130.009 31.6785 129.463 31.7768 128.951 31.9857C128.439 32.1946 127.97 32.5099 127.573 32.9135C126.85 33.8216 126.453 34.9745 126.453 36.1662C126.453 37.3579 126.85 38.5108 127.573 39.4189Z" fill="#394149"/>
<path d="M146.268 22.7164C145.686 23.2682 144.941 23.5724 144.168 23.5724C143.396 23.5724 142.65 23.2682 142.069 22.7164C141.806 22.4466 141.596 22.1213 141.453 21.7604C141.309 21.3995 141.235 21.0106 141.235 20.6175C141.235 20.2245 141.309 19.8356 141.453 19.4747C141.596 19.1138 141.806 18.7885 142.069 18.5187C142.656 17.9807 143.4 17.6855 144.168 17.6855C144.937 17.6855 145.68 17.9807 146.268 18.5187C146.531 18.7885 146.741 19.1138 146.884 19.4747C147.028 19.8356 147.102 20.2245 147.102 20.6175C147.102 21.0106 147.028 21.3995 146.884 21.7604C146.741 22.1213 146.531 22.4466 146.268 22.7164ZM146.729 44.7066C145.423 44.7761 144.132 44.3735 143.059 43.5618C142.618 43.1967 142.265 42.7226 142.028 42.1791C141.791 41.6356 141.677 41.0383 141.696 40.4373V27.4626C141.685 27.369 141.694 27.274 141.723 27.1848C141.751 27.0956 141.797 27.0146 141.859 26.9479C141.92 26.8812 141.995 26.8306 142.077 26.7999C142.159 26.7693 142.247 26.7594 142.333 26.771H146.026C146.443 26.771 146.641 27.0095 146.641 27.4626V38.7201C146.641 39.6264 147.015 40.0796 147.762 40.0796C148.095 40.0926 148.429 40.0524 148.751 39.9603C149.191 39.9603 149.433 40.1034 149.454 40.5327L149.784 43.5141C149.8 43.601 149.799 43.6906 149.78 43.7768C149.761 43.863 149.725 43.9439 149.675 44.014C149.625 44.084 149.562 44.1417 149.49 44.183C149.418 44.2243 149.338 44.2483 149.257 44.2534C148.441 44.545 147.588 44.6979 146.729 44.7066Z" fill="#394149"/>
<path d="M163.208 27.5301C164.267 27.4838 165.322 27.6733 166.313 28.0873C167.304 28.5013 168.209 29.1314 168.976 29.9401C170.401 31.6337 171.194 33.8624 171.194 36.1772C171.194 38.4919 170.401 40.7207 168.976 42.4142C168.213 43.2301 167.309 43.8663 166.317 44.2844C165.326 44.7025 164.268 44.8937 163.208 44.8465C161.698 44.8837 160.219 44.3744 158.994 43.3961V51.4517C158.994 51.8757 158.792 52.0766 158.409 52.0766H155.022C154.944 52.0926 154.865 52.0875 154.79 52.0617C154.715 52.036 154.646 51.9904 154.591 51.9288C154.535 51.8673 154.494 51.7917 154.471 51.7086C154.447 51.6254 154.443 51.5373 154.457 51.4517V33.1535C154.481 32.9745 154.466 32.7919 154.415 32.6201C154.364 32.4484 154.277 32.2924 154.161 32.1645C154.046 32.0366 153.905 31.9403 153.749 31.8835C153.594 31.8266 153.429 31.8106 153.267 31.8369H152.602C152.158 31.8369 151.937 31.6584 151.937 31.3013V28.6682C151.926 28.5052 151.966 28.3433 152.051 28.2093C152.135 28.0753 152.259 27.9773 152.4 27.9318C153.098 27.6512 153.836 27.515 154.578 27.5301C155.318 27.4576 156.061 27.6313 156.711 28.0289C157.361 28.4264 157.889 29.0298 158.228 29.7616C158.877 29.0345 159.654 28.4616 160.51 28.0779C161.367 27.6943 162.285 27.5079 163.208 27.5301ZM160.063 39.5132C160.422 39.9291 160.854 40.26 161.333 40.4861C161.811 40.7122 162.325 40.8287 162.846 40.8287C163.366 40.8287 163.88 40.7122 164.359 40.4861C164.837 40.26 165.269 39.9291 165.628 39.5132C166.386 38.5785 166.784 37.3535 166.737 36.0991C166.79 34.8435 166.391 33.6159 165.628 32.6849C165.269 32.269 164.837 31.9381 164.359 31.712C163.88 31.4859 163.366 31.3694 162.846 31.3694C162.325 31.3694 161.811 31.4859 161.333 31.712C160.854 31.9381 160.422 32.269 160.063 32.6849C159.329 33.6323 158.947 34.8524 158.994 36.0991C158.953 37.3448 159.334 38.5625 160.063 39.5132Z" fill="#394149"/>
<path d="M181.124 44.7052C179.249 44.7865 177.39 44.3135 175.757 43.3397C175.101 42.9233 174.543 42.3567 174.124 41.6818C173.705 41.0069 173.435 40.2411 173.334 39.4412C173.334 39.0007 173.48 38.7804 173.94 38.7804H177.01C177.156 38.7864 177.298 38.8348 177.419 38.9203C177.541 39.0058 177.638 39.1251 177.699 39.265C178.138 40.4543 179.286 41.049 181.124 41.049C181.765 41.0799 182.404 40.9438 182.983 40.6526C183.183 40.5573 183.354 40.4066 183.48 40.2166C183.605 40.0265 183.678 39.8042 183.693 39.5733C183.693 39.0007 183.359 38.6042 182.691 38.3399C181.898 38.0616 181.078 37.877 180.247 37.7893C179.262 37.6717 178.286 37.4878 177.323 37.2386C176.387 37.0152 175.536 36.5012 174.88 35.7629C174.493 35.2611 174.209 34.6808 174.044 34.0581C173.879 33.4354 173.837 32.7835 173.922 32.1431C174.006 31.5027 174.214 30.8874 174.533 30.3355C174.853 29.7837 175.276 29.3069 175.778 28.9351C177.283 27.9238 179.049 27.4311 180.832 27.5254C182.558 27.4639 184.265 27.9141 185.761 28.8249C186.363 29.1849 186.882 29.6821 187.28 30.2803C187.677 30.8785 187.943 31.5626 188.058 32.2829C188.058 32.7234 187.87 32.9437 187.494 32.9437H184.403C184.273 32.9518 184.143 32.9183 184.032 32.8476C183.92 32.7768 183.831 32.6721 183.777 32.5472C183.57 32.0255 183.181 31.6076 182.691 31.3799C182.137 31.0745 181.519 30.9229 180.894 30.9394C180.282 30.9042 179.672 31.0331 179.119 31.3138C178.925 31.393 178.757 31.5318 178.638 31.7124C178.519 31.8929 178.454 32.107 178.451 32.327C178.464 32.6282 178.569 32.9169 178.749 33.1508C178.93 33.3847 179.176 33.5514 179.453 33.6265C180.255 33.9452 181.089 34.1669 181.939 34.2872C182.915 34.4228 183.884 34.6139 184.842 34.8599C185.778 35.0833 186.629 35.5973 187.285 36.3356C187.636 36.7423 187.908 37.2184 188.083 37.7363C188.259 38.2542 188.335 38.8037 188.308 39.3531C188.326 40.1144 188.157 40.8677 187.817 41.5394C187.476 42.2111 186.976 42.7783 186.366 43.1855C184.806 44.2419 182.977 44.772 181.124 44.7052Z" fill="#394149"/>
<path d="M209.706 43.5454C209.718 43.6265 209.715 43.7093 209.697 43.7891C209.679 43.8688 209.646 43.9439 209.601 44.0098C209.556 44.0758 209.499 44.1313 209.434 44.1731C209.369 44.2149 209.297 44.2422 209.222 44.2533C208.453 44.5255 207.651 44.6718 206.842 44.6872C206.042 44.7771 205.234 44.6414 204.497 44.2934C203.759 43.9453 203.116 43.3966 202.632 42.7004C201.144 44.0873 199.221 44.7989 197.263 44.6872C196.353 44.7327 195.445 44.5713 194.596 44.2134C193.748 43.8555 192.978 43.309 192.336 42.6091C191.698 41.8757 191.203 41.0102 190.881 40.0645C190.559 39.1188 190.417 38.1124 190.462 37.1054V28.1763C190.462 27.7424 190.651 27.514 191.051 27.514H194.589C194.989 27.514 195.178 27.7424 195.178 28.1763V36.4203C195.14 37.4475 195.463 38.4519 196.083 39.2293C196.393 39.5854 196.769 39.8654 197.187 40.0506C197.605 40.2357 198.054 40.3217 198.505 40.3026C198.966 40.3245 199.427 40.247 199.861 40.0745C200.294 39.902 200.692 39.638 201.031 39.2978C201.352 38.9391 201.602 38.5129 201.765 38.0455C201.928 37.5781 202.001 37.0794 201.979 36.5802V28.1763C201.979 27.7424 202.168 27.514 202.568 27.514H206.148C206.548 27.514 206.737 27.7424 206.737 28.1763V38.9324C206.737 39.823 207.095 40.2569 207.79 40.2569C208.116 40.2706 208.443 40.2321 208.758 40.1427C208.838 40.1185 208.922 40.1142 209.003 40.13C209.084 40.1459 209.161 40.1815 209.228 40.2342C209.295 40.287 209.35 40.3554 209.389 40.4345C209.428 40.5136 209.45 40.6012 209.453 40.6908L209.706 43.5454Z" fill="#394149"/>
<path d="M243.936 43.5996C243.955 43.6788 243.957 43.7615 243.942 43.8416C243.926 43.9217 243.895 43.9972 243.848 44.0628C243.802 44.1284 243.743 44.1824 243.674 44.221C243.606 44.2595 243.53 44.2816 243.453 44.2858C242.671 44.5533 241.855 44.6951 241.033 44.7063C239.782 44.7742 238.546 44.4003 237.52 43.6438C237.076 43.3198 236.716 42.8856 236.47 42.3798C236.224 41.874 236.101 41.3121 236.111 40.7441V35.5422C236.155 34.5496 235.839 33.5764 235.227 32.8196C234.932 32.4736 234.567 32.2008 234.16 32.0209C233.752 31.841 233.312 31.7585 232.871 31.7792C232.473 31.7634 232.077 31.8428 231.712 32.0115C231.348 32.1802 231.025 32.4338 230.767 32.7532C230.212 33.4949 229.928 34.4218 229.968 35.3651V43.5332C229.968 43.9537 229.778 44.1751 229.379 44.1751H225.823C225.741 44.1859 225.657 44.1767 225.578 44.1482C225.5 44.1197 225.428 44.0728 225.369 44.0109C225.31 43.949 225.266 43.8738 225.239 43.791C225.212 43.7082 225.203 43.62 225.213 43.5332V35.5422C225.259 34.5605 224.968 33.5941 224.393 32.8196C224.136 32.4942 223.815 32.2323 223.451 32.0525C223.088 31.8727 222.691 31.7794 222.289 31.7792C221.86 31.761 221.432 31.8383 221.033 32.0061C220.634 32.174 220.274 32.4285 219.975 32.7532C219.373 33.4712 219.064 34.4092 219.112 35.3651V43.5332C219.123 43.62 219.114 43.7082 219.087 43.791C219.06 43.8738 219.015 43.949 218.956 44.0109C218.898 44.0728 218.826 44.1197 218.747 44.1482C218.669 44.1767 218.585 44.1859 218.502 44.1751H215.073C214.674 44.1751 214.484 43.9537 214.484 43.5332V33.1073C214.509 32.9298 214.494 32.7486 214.44 32.5783C214.387 32.4079 214.296 32.2531 214.176 32.1263C214.055 31.9994 213.908 31.9039 213.746 31.8475C213.584 31.7911 213.412 31.7753 213.243 31.8013H212.549C212.086 31.8013 211.855 31.6242 211.855 31.2701V28.6581C211.844 28.4965 211.886 28.3358 211.974 28.2028C212.062 28.0699 212.191 27.9728 212.339 27.9276C213.066 27.6493 213.836 27.5142 214.611 27.5292C215.354 27.4626 216.1 27.6184 216.762 27.9787C217.425 28.3391 217.977 28.8892 218.355 29.5656C219.065 28.8578 219.906 28.3117 220.825 27.9613C221.744 27.6109 222.723 27.4638 223.699 27.5292C224.646 27.4805 225.592 27.6676 226.458 28.0752C227.324 28.4829 228.087 29.0997 228.684 29.8755C229.381 29.0793 230.236 28.4558 231.189 28.0501C232.143 27.6443 233.17 27.4664 234.196 27.5292C235.114 27.484 236.032 27.6396 236.89 27.9863C237.748 28.333 238.528 28.8633 239.182 29.5435C239.821 30.2529 240.317 31.0916 240.639 32.0086C240.96 32.9256 241.102 33.9019 241.054 34.8782V39.1503C241.054 39.9915 241.412 40.412 242.085 40.412C242.411 40.428 242.738 40.3907 243.053 40.3014C243.488 40.3014 243.719 40.4784 243.747 40.8326L243.936 43.5996Z" fill="#394149"/>
<path d="M0.832845 25.338C2.3315 18.2413 5.80234 11.9394 10.6927 7.43566C15.5831 2.9319 21.6119 0.485229 27.8191 0.485229C34.0263 0.485229 40.055 2.9319 44.9454 7.43566C49.8358 11.9394 53.3067 18.2413 54.8053 25.338H52.3677C48.2557 25.2666 44.2279 26.7145 40.8501 29.4782C40.6551 29.6445 40.4516 29.7964 40.2407 29.9329H39.9563C39.7454 29.7964 39.5418 29.6445 39.3469 29.4782C35.9391 26.7785 31.9257 25.3365 27.8191 25.3365C23.7125 25.3365 19.6991 26.7785 16.2913 29.4782C16.0963 29.6445 15.8928 29.7964 15.6819 29.9329H15.3975C15.1866 29.7964 14.983 29.6445 14.7881 29.4782C11.4103 26.7145 7.3825 25.2666 3.27044 25.338H0.832845ZM47.98 40.3434C49.2314 39.1953 50.7822 38.5947 52.3677 38.6442H55.6382V30.962H52.3677C49.5751 30.9222 46.8463 31.9463 44.5877 33.8817C43.3167 34.9857 41.7791 35.5813 40.2 35.5813C38.621 35.5813 37.0834 34.9857 35.8124 33.8817C33.4965 31.9824 30.7424 30.9642 27.9206 30.9642C25.0989 30.9642 22.3448 31.9824 20.0289 33.8817C18.7579 34.9857 17.2203 35.5813 15.6413 35.5813C14.0622 35.5813 12.5246 34.9857 11.2536 33.8817C8.96711 31.9215 6.19921 30.8962 3.37201 30.962H0V38.6442H3.27044C4.85592 38.5947 6.4068 39.1953 7.65812 40.3434C9.96979 42.2439 12.7208 43.263 15.5397 43.263C18.3586 43.263 21.1096 42.2439 23.4213 40.3434C24.6742 39.1988 26.2239 38.5986 27.8089 38.6442C29.3949 38.5906 30.9469 39.1917 32.1966 40.3434C34.5125 42.2427 37.2666 43.2609 40.0883 43.2609C42.9101 43.2609 45.6642 42.2427 47.98 40.3434ZM47.98 54.0804C49.2314 52.9323 50.7822 52.3317 52.3677 52.3812H55.6382V44.699H52.3677C49.5751 44.6592 46.8463 45.6833 44.5877 47.6187C43.3167 48.7227 41.7791 49.3183 40.2 49.3183C38.621 49.3183 37.0834 48.7227 35.8124 47.6187C33.4965 45.7194 30.7424 44.7012 27.9206 44.7012C25.0989 44.7012 22.3448 45.7194 20.0289 47.6187C18.7579 48.7227 17.2203 49.3183 15.6413 49.3183C14.0622 49.3183 12.5246 48.7227 11.2536 47.6187C8.96711 45.6585 6.19921 44.6332 3.37201 44.699H0V52.3812H3.27044C4.85592 52.3317 6.4068 52.9323 7.65812 54.0804C9.96979 55.9809 12.7208 57 15.5397 57C18.3586 57 21.1096 55.9809 23.4213 54.0804C24.6742 52.9358 26.2239 52.3356 27.8089 52.3812C29.3949 52.3276 30.9469 52.9287 32.1966 54.0804C34.5125 55.9797 37.2666 56.9979 40.0883 56.9979C42.9101 56.9979 45.6642 55.9797 47.98 54.0804Z" fill="#394149"/>
<path d="M386.451 25.6496C385.887 26.3011 385.455 27.0874 385.185 27.9524C384.916 28.8174 384.817 29.7399 384.894 30.6542L384.867 30.6234C384.946 31.6996 384.819 32.7827 384.496 33.797C384.173 34.8113 383.661 35.7324 382.995 36.4961C382.33 37.2598 381.527 37.8476 380.643 38.2185C379.759 38.5895 378.816 38.7346 377.878 38.6437L377.905 38.6745C376.783 38.5547 375.656 38.8348 374.678 39.4767C373.7 40.1186 372.918 41.091 372.44 42.2614C371.961 43.4317 371.808 44.7431 372.003 46.0165C372.197 47.29 372.729 48.4637 373.526 49.3774C374.323 50.2912 375.347 50.9007 376.457 51.1227C377.566 51.3447 378.709 51.1685 379.728 50.6181C380.748 50.0677 381.595 49.1698 382.153 48.047C382.712 46.9241 382.955 45.6309 382.849 44.3437L382.878 44.3745C382.798 43.2983 382.925 42.2152 383.248 41.2009C383.571 40.1866 384.084 39.2655 384.749 38.5018C385.415 37.7381 386.217 37.1503 387.101 36.7794C387.985 36.4084 388.929 36.2633 389.867 36.3542L389.838 36.3234C390.755 36.418 391.677 36.2456 392.52 35.8222C393.363 35.3987 394.099 34.738 394.66 33.9013C395.221 33.0645 395.589 32.0787 395.73 31.0353C395.87 29.9919 395.779 28.9246 395.465 27.9324C395.15 26.9402 394.623 26.0551 393.931 25.3592C393.239 24.6633 392.405 24.1791 391.506 23.9514C390.608 23.7238 389.674 23.7601 388.791 24.0569C387.908 24.3538 387.105 24.9016 386.455 25.6496H386.451Z" fill="#394149"/>
<path d="M375.947 35.0374L375.92 35.0074C376.695 35.0971 377.478 34.9878 378.212 34.6875C378.946 34.3871 379.613 33.9032 380.164 33.2707C380.715 32.6382 381.137 31.873 381.399 31.0303C381.661 30.1876 381.757 29.2886 381.679 28.3982L381.707 28.4282C381.63 27.3807 381.753 26.3265 382.067 25.3392C382.382 24.3519 382.88 23.4553 383.527 22.712C384.174 21.9686 384.955 21.3965 385.815 21.0354C386.675 20.6744 387.593 20.5331 388.505 20.6215L388.477 20.5916C389.568 20.7093 390.665 20.4375 391.616 19.8134C392.568 19.1893 393.329 18.2433 393.795 17.1042C394.262 15.9652 394.411 14.6888 394.222 13.4489C394.034 12.209 393.517 11.0662 392.742 10.1762C391.967 9.2862 390.971 8.69242 389.892 8.47583C388.812 8.25925 387.701 8.4304 386.709 8.96595C385.717 9.5015 384.893 10.3754 384.35 11.4684C383.806 12.5614 383.57 13.8203 383.672 15.0734L383.646 15.0418C383.723 16.0894 383.6 17.1437 383.286 18.1311C382.972 19.1185 382.474 20.0153 381.826 20.7587C381.179 21.5021 380.398 22.0742 379.538 22.4352C378.678 22.7961 377.76 22.9372 376.848 22.8484L376.874 22.88C376.099 22.7903 375.316 22.8996 374.582 23.1999C373.848 23.5003 373.181 23.9842 372.63 24.6167C372.079 25.2492 371.657 26.0145 371.395 26.8571C371.133 27.6998 371.037 28.5988 371.115 29.4892L371.088 29.4593C371.165 30.5067 371.042 31.5608 370.728 32.5479C370.413 33.5351 369.915 34.4316 369.268 35.1749C368.62 35.9181 367.84 36.4903 366.98 36.8514C366.121 37.2126 365.203 37.354 364.291 37.2659L364.317 37.2959C363.225 37.1782 362.129 37.4499 361.177 38.074C360.226 38.6981 359.465 39.6442 358.998 40.7832C358.532 41.9222 358.383 43.1987 358.572 44.4386C358.76 45.6784 359.277 46.8213 360.052 47.7113C360.827 48.6013 361.822 49.195 362.902 49.4116C363.982 49.6282 365.093 49.4571 366.085 48.9215C367.077 48.386 367.901 47.5121 368.444 46.4191C368.988 45.3261 369.224 44.0672 369.122 42.814L369.149 42.844C369.072 41.7965 369.195 40.7423 369.51 39.755C369.824 38.7677 370.322 37.8711 370.97 37.1278C371.617 36.3844 372.398 35.8123 373.257 35.4512C374.117 35.0902 375.035 34.9489 375.947 35.0374Z" fill="#394149"/>
<path d="M365.754 32.2373C366.283 31.5859 366.688 30.7995 366.94 29.9343C367.192 29.0691 367.285 28.1464 367.212 27.2321L367.239 27.2629C367.165 26.1862 367.283 25.1027 367.587 24.088C367.89 23.0733 368.37 22.1519 368.995 21.388C369.619 20.6242 370.372 20.0364 371.201 19.6656C372.03 19.2949 372.916 19.1501 373.795 19.2415L373.769 19.2108C374.82 19.3314 375.877 19.052 376.794 18.4108C377.711 17.7695 378.444 16.7977 378.893 15.6277C379.343 14.4577 379.486 13.1466 379.304 11.8731C379.123 10.5996 378.624 9.42578 377.877 8.51165C377.131 7.59752 376.172 6.98759 375.131 6.76506C374.091 6.54253 373.02 6.71822 372.064 7.26816C371.108 7.81811 370.314 8.71555 369.79 9.8381C369.266 10.9606 369.038 12.2537 369.136 13.5408L369.111 13.51C369.185 14.5864 369.067 15.6695 368.764 16.684C368.461 17.6984 367.98 18.6197 367.356 19.3835C366.732 20.1473 365.98 20.7352 365.151 21.1061C364.322 21.4771 363.437 21.6222 362.558 21.5314L362.583 21.5621C361.724 21.4678 360.859 21.6405 360.069 22.0642C359.279 22.4878 358.589 23.1488 358.063 23.9857C357.537 24.8227 357.192 25.8086 357.06 26.8521C356.928 27.8956 357.014 28.963 357.309 29.9552C357.604 30.9475 358.099 31.8325 358.748 32.5284C359.396 33.2243 360.178 33.7084 361.021 33.936C361.863 34.1636 362.739 34.1272 363.566 33.8303C364.394 33.5333 365.148 32.9854 365.756 32.2373H365.754Z" fill="#394149"/>
<path d="M410.715 15.2376H415.191V39.2233H410.715V15.2376Z" fill="#394149"/>
<path d="M416.683 30.6911C416.677 28.9954 417.11 27.3359 417.926 25.9227C418.742 24.5096 419.905 23.4063 421.268 22.7527C422.63 22.0991 424.131 21.9246 425.58 22.2512C427.029 22.5778 428.361 23.391 429.408 24.5876C430.454 25.7842 431.168 27.3104 431.458 28.973C431.748 30.6356 431.602 32.3597 431.038 33.9269C430.475 35.4941 429.519 36.834 428.291 37.7768C427.064 38.7196 425.62 39.2228 424.143 39.2228C423.163 39.2357 422.19 39.024 421.282 38.6002C420.374 38.1764 419.548 37.549 418.854 36.7547C418.159 35.9603 417.609 35.0149 417.237 33.9738C416.864 32.9327 416.676 31.8167 416.683 30.6911ZM427.381 30.6911C427.363 29.9602 427.158 29.2515 426.792 28.6535C426.425 28.0556 425.913 27.595 425.32 27.3293C424.727 27.0635 424.079 27.0045 423.456 27.1595C422.834 27.3146 422.265 27.6768 421.821 28.2009C421.377 28.725 421.078 29.3878 420.96 30.1064C420.842 30.825 420.912 31.5674 421.159 32.241C421.407 32.9145 421.822 33.4893 422.353 33.8934C422.884 34.2975 423.506 34.5129 424.143 34.5129C424.579 34.5263 425.013 34.4357 425.417 34.247C425.821 34.0583 426.187 33.7755 426.491 33.4164C426.795 33.0573 427.031 32.6298 427.185 32.1607C427.338 31.6917 427.404 31.1913 427.381 30.6911Z" fill="#394149"/>
<path d="M449.508 22.5613V38.1869C449.508 43.7158 445.876 46.053 442.188 46.053C440.89 46.1683 439.59 45.857 438.431 45.1533C437.272 44.4495 436.299 43.3805 435.618 42.0634L439.166 39.6282C439.452 40.3147 439.909 40.8811 440.473 41.2516C441.038 41.622 441.685 41.7788 442.327 41.701C442.737 41.7685 443.155 41.7256 443.55 41.5756C443.944 41.4255 444.305 41.172 444.606 40.834C444.907 40.4959 445.14 40.0819 445.287 39.6225C445.435 39.1632 445.494 38.6703 445.46 38.1803V36.6759C444.973 37.3833 444.353 37.9453 443.65 38.3168C442.947 38.6883 442.18 38.8591 441.411 38.8153C439.582 38.7468 437.847 37.8361 436.573 36.276C435.3 34.7159 434.588 32.6288 434.588 30.4564C434.588 28.284 435.3 26.1969 436.573 24.6368C437.847 23.0766 439.582 22.166 441.411 22.0975C442.18 22.0537 442.947 22.2244 443.65 22.596C444.353 22.9675 444.973 23.5295 445.46 24.2369V22.5579L449.508 22.5613ZM445.461 30.4589C445.489 29.6632 445.316 28.8758 444.964 28.1981C444.611 27.5203 444.096 26.9832 443.485 26.6558C442.873 26.3284 442.193 26.2258 441.532 26.3611C440.871 26.4965 440.259 26.8635 439.775 27.4151C439.291 27.9667 438.957 28.6776 438.817 29.4562C438.676 30.2349 438.735 31.0457 438.986 31.7843C439.237 32.5228 439.668 33.1554 440.224 33.6006C440.78 34.0458 441.436 34.2831 442.107 34.2822C442.544 34.3184 442.983 34.2455 443.394 34.0683C443.806 33.8911 444.182 33.6135 444.498 33.2533C444.814 32.8932 445.063 32.4584 445.229 31.9771C445.395 31.4958 445.474 30.9786 445.461 30.4589Z" fill="#394149"/>
<path d="M452.493 30.6911C452.487 28.9954 452.919 27.3359 453.735 25.9227C454.552 24.5096 455.715 23.4063 457.077 22.7527C458.44 22.0991 459.941 21.9246 461.39 22.2512C462.839 22.5778 464.171 23.391 465.218 24.5876C466.264 25.7842 466.977 27.3104 467.268 28.973C467.558 30.6356 467.412 32.3597 466.848 33.9269C466.284 35.4941 465.328 36.834 464.101 37.7768C462.873 38.7196 461.43 39.2228 459.953 39.2228C458.973 39.2357 458 39.024 457.092 38.6002C456.184 38.1764 455.358 37.549 454.663 36.7547C453.969 35.9603 453.419 35.0149 453.046 33.9738C452.674 32.9327 452.485 31.8167 452.493 30.6911ZM463.19 30.6911C463.173 29.9602 462.968 29.2515 462.601 28.6535C462.235 28.0556 461.723 27.595 461.13 27.3293C460.537 27.0635 459.888 27.0045 459.266 27.1595C458.644 27.3146 458.075 27.6768 457.631 28.2009C457.187 28.725 456.887 29.3878 456.77 30.1064C456.652 30.825 456.721 31.5674 456.969 32.241C457.217 32.9145 457.632 33.4893 458.163 33.8934C458.693 34.2975 459.316 34.5129 459.953 34.5129C460.389 34.5263 460.823 34.4357 461.227 34.247C461.631 34.0583 461.997 33.7755 462.301 33.4164C462.605 33.0573 462.841 32.6298 462.994 32.1607C463.147 31.6917 463.214 31.1913 463.19 30.6911Z" fill="#394149"/>
<path d="M468.905 18.2193C468.905 17.6296 469.08 17.0531 469.408 16.5628C469.736 16.0724 470.202 15.6903 470.747 15.4646C471.293 15.2389 471.893 15.1799 472.472 15.2949C473.05 15.41 473.582 15.6939 473.999 16.1109C474.417 16.5279 474.701 17.0592 474.816 17.6376C474.931 18.216 474.872 18.8155 474.646 19.3603C474.42 19.9052 474.038 20.3708 473.547 20.6985C473.057 21.0261 472.48 21.201 471.889 21.201C471.1 21.1931 470.346 20.8765 469.788 20.319C469.23 19.7615 468.913 19.0077 468.905 18.2193ZM469.408 22.6584H474.383V39.2233H469.401L469.408 22.6584Z" fill="#394149"/>
<path d="M492.768 30.9657C492.821 32.0755 492.674 33.1858 492.336 34.2328C491.997 35.2798 491.475 36.2429 490.798 37.0666C490.12 37.8904 489.302 38.5585 488.39 39.0327C487.477 39.5069 486.488 39.7777 485.481 39.8296C484.633 39.8806 483.786 39.7231 483 39.3688C482.215 39.0144 481.511 38.4719 480.939 37.7807V46.0764H476.366V22.5699H480.939V24.1473C481.511 23.4566 482.215 22.9146 483.001 22.5606C483.786 22.2065 484.633 22.0492 485.481 22.1001C486.489 22.1518 487.477 22.4225 488.39 22.8967C489.303 23.3709 490.121 24.0393 490.799 24.8633C491.476 25.6872 491.999 26.6506 492.336 27.6979C492.674 28.7452 492.821 29.8558 492.768 30.9657ZM488.194 30.9657C488.176 30.1799 487.948 29.4173 487.539 28.7734C487.129 28.1295 486.557 27.6329 485.892 27.3458C485.228 27.0587 484.501 26.9938 483.803 27.1592C483.106 27.3247 482.468 27.7131 481.969 28.2759C481.471 28.8387 481.135 29.5509 481.002 30.3233C480.869 31.0957 480.947 31.8941 481.224 32.6184C481.501 33.3427 481.966 33.9609 482.561 34.3955C483.156 34.8302 483.854 35.0619 484.567 35.0618C485.057 35.0859 485.546 34.9955 486.003 34.7968C486.459 34.598 486.871 34.2954 487.214 33.9086C487.556 33.5218 487.821 33.0597 487.99 32.5526C488.158 32.0454 488.228 31.5046 488.194 30.9657Z" fill="#394149"/>
<path d="M506.207 33.8827C506.207 37.6076 503.033 39.1945 499.605 39.1945C498.22 39.3225 496.829 39.0236 495.612 38.3365C494.395 37.6494 493.408 36.6057 492.778 35.3403L496.904 32.9437C497.071 33.5286 497.43 34.0374 497.92 34.3851C498.41 34.7329 499.003 34.8985 499.598 34.8544C500.74 34.8544 501.313 34.4978 501.313 33.8516C501.313 32.0684 493.502 33.0091 493.502 27.4061C493.502 23.8742 496.423 22.0943 499.725 22.0943C500.966 22.0542 502.195 22.3546 503.284 22.964C504.373 23.5734 505.281 24.4696 505.915 25.5592L501.852 27.7938C501.673 27.3696 501.377 27.0083 500.999 26.7549C500.62 26.5015 500.178 26.3673 499.725 26.3689C498.899 26.3689 498.391 26.6961 498.391 27.2752C498.397 29.1222 506.207 27.8903 506.207 33.8827Z" fill="#394149"/>
<path d="M521.128 22.0908V38.744H516.929V37.1779C516.445 37.8689 515.83 38.4134 515.135 38.7666C514.439 39.1199 513.683 39.2718 512.929 39.2099C510.102 39.2099 507.699 36.8129 507.699 32.3131V22.0908H511.897V31.5814C511.862 31.978 511.9 32.379 512.008 32.7564C512.117 33.1338 512.293 33.4786 512.524 33.7668C512.756 34.055 513.038 34.2796 513.35 34.4251C513.662 34.5706 513.997 34.6334 514.331 34.6093C515.871 34.6093 516.934 33.5445 516.934 31.1794V22.0958L521.128 22.0908Z" fill="#394149"/>
<path d="M546.493 29.0012V39.2234H542.016V29.4334C542.016 27.7684 541.3 26.7038 539.868 26.7038C538.376 26.7038 537.54 27.8693 537.54 29.8337V39.2234H533.065V29.4334C533.065 27.7684 532.349 26.7038 530.915 26.7038C529.423 26.7038 528.588 27.8693 528.588 29.8337V39.2234H524.112V22.5732H528.588V24.1037C529.052 23.4247 529.661 22.8862 530.36 22.5375C531.058 22.1888 531.824 22.0409 532.587 22.1073C533.353 22.0655 534.116 22.2459 534.801 22.6308C535.486 23.0157 536.069 23.5921 536.495 24.3038C536.991 23.5593 537.648 22.9673 538.405 22.5832C539.162 22.199 539.994 22.0353 540.823 22.1073C544.249 22.109 546.493 24.8386 546.493 29.0012Z" fill="#394149"/>
<path d="M549.477 22.0907C551.125 22.0907 552.461 20.5566 552.461 18.6641C552.461 16.7717 551.125 15.2376 549.477 15.2376C547.829 15.2376 546.493 16.7717 546.493 18.6641C546.493 20.5566 547.829 22.0907 549.477 22.0907Z" fill="#394149"/>
<path d="M714.238 17.6724H718.588V39.215H714.238V17.6724ZM720.314 31.081C720.314 25.7531 722.982 22.5741 727.1 22.5741C731.218 22.5741 733.886 25.7531 733.886 31.081C733.886 36.409 731.276 39.6057 727.1 39.6057C722.924 39.6057 720.314 36.4978 720.314 31.081ZM729.522 31.081C729.522 28.1507 728.579 26.428 727.1 26.428C725.621 26.428 724.693 28.204 724.693 31.081C724.693 33.9581 725.606 35.6986 727.1 35.6986C728.594 35.6986 729.522 34.0647 729.522 31.0988V31.081ZM735.525 40.2628H739.701C739.899 40.8036 740.235 41.2514 740.659 41.5394C741.082 41.8274 741.57 41.9403 742.05 41.8612C743.703 41.8612 744.573 40.7601 744.573 39.1617V36.1781H744.486C744.139 37.0925 743.577 37.8588 742.871 38.3779C742.166 38.8971 741.349 39.1454 740.527 39.0907C737.352 39.0907 735.249 36.1248 735.249 31.0278C735.249 25.9307 737.25 22.7162 740.585 22.7162C741.433 22.6755 742.27 22.9531 742.986 23.5117C743.701 24.0704 744.26 24.8834 744.587 25.8419V22.876H748.937V39.0374C748.937 42.9268 746.139 45.3421 742.006 45.3421C738.164 45.3421 735.771 43.2287 735.525 40.2806V40.2628ZM744.587 31.0633C744.587 28.4704 743.616 26.8365 742.079 26.8365C740.542 26.8365 739.599 28.4526 739.599 31.0633C739.599 33.674 740.527 35.148 742.079 35.148C743.63 35.148 744.587 33.7095 744.587 31.081V31.0633ZM750.576 31.0633C750.576 25.7354 753.244 22.5564 757.362 22.5564C761.48 22.5564 764.163 25.7354 764.163 31.0633C764.163 36.3912 761.553 39.588 757.362 39.588C753.171 39.588 750.576 36.4978 750.576 31.081V31.0633ZM759.784 31.0633C759.784 28.1329 758.841 26.4102 757.362 26.4102C755.883 26.4102 755.027 28.204 755.027 31.0988C755.027 33.9937 755.941 35.7163 757.42 35.7163C758.899 35.7163 759.784 34.0647 759.784 31.0988V31.0633ZM765.816 19.0044C765.804 18.4665 765.924 17.9365 766.158 17.4817C766.393 17.0269 766.733 16.6677 767.135 16.4497C767.536 16.2317 767.982 16.1646 768.415 16.2571C768.847 16.3495 769.248 16.5973 769.566 16.969C769.883 17.3406 770.104 17.8195 770.199 18.3448C770.294 18.8701 770.26 19.4182 770.101 19.9197C769.941 20.4211 769.664 20.8533 769.304 21.1615C768.944 21.4696 768.517 21.6399 768.078 21.6506C767.786 21.6751 767.494 21.6256 767.219 21.5052C766.945 21.3848 766.693 21.1961 766.481 20.9509C766.268 20.7057 766.1 20.4094 765.985 20.0806C765.871 19.7517 765.813 19.3974 765.816 19.0399V19.0044ZM765.816 22.9116H770.166V39.215H765.816V22.9116ZM785.956 31.0633C785.956 36.3912 784.028 39.4281 780.722 39.4281C779.874 39.4948 779.03 39.241 778.304 38.701C777.578 38.161 777.005 37.3609 776.662 36.409H776.575V44.4364H772.225V22.876H776.575V25.7886H776.662C776.989 24.8209 777.551 24 778.272 23.4376C778.993 22.8752 779.839 22.5985 780.693 22.6452C784.028 22.7162 786.014 25.7709 786.014 31.0988L785.956 31.0633ZM781.606 31.0633C781.606 28.4704 780.635 26.8187 779.112 26.8187C777.59 26.8187 776.618 28.4881 776.604 31.0633C776.589 33.6385 777.59 35.2901 779.112 35.2901C780.635 35.2901 781.606 33.674 781.606 31.0988V31.0633ZM793.424 22.5386C797.035 22.5386 799.224 24.6343 799.326 27.9909H795.367C795.367 26.8365 794.584 26.1083 793.381 26.1083C792.177 26.1083 791.641 26.6766 791.641 27.5113C791.641 28.346 792.119 28.6124 793.091 28.8611L795.875 29.5537C798.528 30.2463 799.659 31.5606 799.659 34.0292C799.659 37.4035 797.151 39.5702 793.453 39.5702C789.756 39.5702 787.334 37.4035 787.146 34.0824H791.336C791.467 35.2901 792.25 36.0005 793.526 36.0005C794.802 36.0005 795.382 35.4855 795.382 34.633C795.382 33.7805 794.976 33.6029 793.932 33.3365L791.423 32.6794C788.828 32.0223 787.465 30.3351 787.465 27.8488C787.494 24.652 789.828 22.5741 793.424 22.5741V22.5386ZM814.174 39.1795H809.983V36.1426H809.896C809.666 37.1622 809.158 38.0546 808.456 38.6717C807.755 39.2887 806.902 39.5933 806.039 39.5347C805.378 39.5807 804.717 39.4524 804.1 39.1586C803.483 38.8647 802.925 38.412 802.463 37.8312C802.001 37.2504 801.647 36.5549 801.423 35.7917C801.199 35.0286 801.112 34.2156 801.167 33.4076V22.876H805.517V32.1822C805.517 34.118 806.329 35.148 807.678 35.148C807.994 35.1488 808.307 35.0668 808.595 34.9075C808.883 34.7482 809.14 34.5152 809.349 34.2243C809.558 33.9333 809.713 33.5911 809.805 33.2205C809.897 32.8499 809.923 32.4596 809.882 32.0756V22.876H814.232L814.174 39.1795ZM816.276 22.876H820.482V26.0195H820.569C820.799 25.0134 821.296 24.1294 821.981 23.506C822.666 22.8825 823.5 22.5548 824.353 22.5741C825.221 22.489 826.083 22.8072 826.769 23.4653C827.454 24.1235 827.911 25.0734 828.051 26.1261H828.138C828.401 25.0622 828.945 24.1357 829.686 23.4926C830.426 22.8495 831.32 22.5264 832.227 22.5741C832.818 22.5498 833.407 22.6782 833.956 22.9509C834.504 23.2237 835 23.6347 835.41 24.1573C835.82 24.6798 836.136 25.3023 836.337 25.9842C836.538 26.6661 836.62 27.3921 836.577 28.1152V39.215H832.227V29.5359C832.227 27.76 831.574 26.943 830.356 26.943C830.085 26.9402 829.816 27.0088 829.567 27.1441C829.319 27.2794 829.098 27.4784 828.918 27.7275C828.738 27.9766 828.603 28.2701 828.524 28.5882C828.444 28.9063 828.421 29.2416 828.457 29.5715V39.215H824.324V29.4649C824.324 27.831 823.672 26.943 822.483 26.943C822.208 26.9431 821.936 27.0146 821.686 27.1526C821.435 27.2907 821.212 27.4922 821.029 27.744C820.847 27.9957 820.711 28.2919 820.629 28.6131C820.547 28.9342 820.521 29.273 820.554 29.607V39.215H816.204L816.276 22.876Z" fill="#394149"/>
<path d="M702.192 18.7121C701.464 16.6539 700.501 14.7358 699.332 13.0167C697.604 10.3995 695.447 8.26466 693.004 6.75273C690.561 5.2408 687.886 4.38604 685.157 4.2447C682.427 4.10336 679.704 4.67864 677.168 5.9327C674.631 7.18675 672.337 9.09114 670.438 11.5205C668.539 13.9499 667.078 16.8492 666.15 20.0275C665.222 23.2059 664.849 26.5913 665.055 29.9609C665.261 33.3305 666.042 36.6079 667.346 39.5774C668.65 42.5469 670.447 45.1412 672.62 47.1895C674.014 48.53 675.555 49.6198 677.196 50.4263C679.497 51.5926 681.96 52.1934 684.446 52.1951C689.579 52.1811 694.498 49.6503 698.125 45.1577C701.751 40.665 703.79 34.577 703.794 28.2282C703.798 24.9533 703.252 21.7131 702.192 18.7121ZM684.432 9.10766C686.665 9.10737 688.871 9.71106 690.895 10.8764C690.402 11.1403 689.883 11.3246 689.351 11.4248C687.602 11.738 685.981 12.7426 684.731 14.2887C683.481 15.8348 682.669 17.8394 682.416 20.0033C682.304 21.2169 681.858 22.346 681.152 23.1999C680.446 24.0538 679.524 24.5803 678.54 24.6906C676.791 25.0038 675.17 26.0085 673.92 27.5546C672.67 29.1006 671.858 31.1052 671.605 33.2692C671.519 34.4231 671.121 35.5075 670.475 36.3469C669.361 33.4341 668.86 30.22 669.02 27.0037C669.18 23.7873 669.995 20.6732 671.389 17.9511C672.783 15.229 674.712 12.9875 676.995 11.4351C679.278 9.88271 681.841 9.06988 684.446 9.07229L684.432 9.10766ZM672.606 40.6096C672.778 40.415 672.949 40.2382 673.121 40.0259C674.393 38.5003 675.21 36.4863 675.437 34.3128C675.53 33.091 675.971 31.9498 676.681 31.0936C677.365 30.213 678.286 29.672 679.27 29.5724C681.019 29.2592 682.64 28.2545 683.89 26.7085C685.14 25.1624 685.952 23.1578 686.205 20.9939C686.267 19.7159 686.71 18.512 687.449 17.6155C688.15 16.7521 689.079 16.2307 690.066 16.1474C691.673 15.8739 693.172 14.9901 694.356 13.6181C695.704 15.0014 696.846 16.6655 697.731 18.5353C697.676 18.6261 697.614 18.7091 697.545 18.7829C696.862 19.6712 695.943 20.224 694.957 20.3394C693.205 20.6472 691.582 21.65 690.331 23.1971C689.081 24.7442 688.27 26.7518 688.021 28.918C687.92 30.1357 687.482 31.2728 686.781 32.1367C686.08 33.0006 685.159 33.5382 684.174 33.6583C682.42 33.9692 680.793 34.9718 679.536 36.5172C678.279 38.0627 677.458 40.0686 677.196 42.2369C677.119 43.1013 676.879 43.9314 676.495 44.6601C675.028 43.5826 673.714 42.2142 672.606 40.6096ZM684.432 47.4371C682.981 47.439 681.537 47.189 680.142 46.6942C680.619 45.594 680.929 44.3951 681.057 43.1566C681.157 41.9417 681.593 40.8067 682.291 39.9431C682.99 39.0795 683.907 38.5403 684.889 38.4163C686.641 38.1066 688.265 37.1035 689.518 35.5571C690.771 34.0108 691.585 32.0042 691.839 29.8377C691.939 28.6228 692.375 27.4878 693.073 26.6242C693.772 25.7606 694.689 25.2214 695.672 25.0974C696.99 24.8853 698.247 24.2781 699.332 23.3286C699.935 26.155 700.006 29.1146 699.541 31.9804C699.076 34.8461 698.086 37.542 696.647 39.861C695.208 42.18 693.359 44.0606 691.242 45.3586C689.125 46.6565 686.795 47.3373 684.432 47.3487V47.4371Z" fill="#394149"/>
<path d="M995.253 14.9929H999.73V40.6919H995.253V14.9929Z" fill="#394149"/>
<path d="M1001.22 31.2686C1001.22 29.4027 1001.66 27.5787 1002.48 26.028C1003.3 24.4773 1004.47 23.2696 1005.84 22.558C1007.2 21.8464 1008.71 21.663 1010.15 22.0309C1011.6 22.3989 1012.93 23.3017 1013.97 24.6249C1015.01 25.9481 1015.72 27.6321 1016 29.4635C1016.29 31.2949 1016.13 33.1912 1015.56 34.9121C1014.99 36.6329 1014.03 38.1008 1012.8 39.1297C1011.56 40.1586 1010.12 40.7021 1008.64 40.6915C1007.66 40.7012 1006.69 40.4636 1005.78 39.9928C1004.88 39.522 1004.05 38.8275 1003.36 37.9498C1002.67 37.0722 1002.13 36.0291 1001.76 34.8818C1001.39 33.7346 1001.21 32.5061 1001.22 31.2686ZM1011.91 31.2686C1011.89 30.4642 1011.69 29.6838 1011.32 29.0252C1010.95 28.3665 1010.44 27.8588 1009.85 27.5655C1009.26 27.2723 1008.61 27.2064 1007.99 27.3763C1007.36 27.5461 1006.79 27.9441 1006.35 28.5205C1005.9 29.0968 1005.6 29.826 1005.49 30.6167C1005.37 31.4075 1005.44 32.2247 1005.68 32.9662C1005.93 33.7077 1006.35 34.3406 1006.88 34.7856C1007.41 35.2307 1008.03 35.4682 1008.67 35.4685C1009.1 35.4792 1009.53 35.3767 1009.93 35.1676C1010.33 34.9584 1010.7 34.647 1011 34.2528C1011.3 33.8586 1011.53 33.3902 1011.69 32.8767C1011.84 32.3632 1011.9 31.8158 1011.88 31.2686H1011.91Z" fill="#394149"/>
<path d="M1034.05 23.9593V40.7754C1034.05 46.7083 1030.09 49.2281 1026.08 49.2281C1024.67 49.3641 1023.26 49.0348 1021.99 48.277C1020.73 47.5193 1019.68 46.3633 1018.94 44.9392L1022.8 42.3301C1023.11 43.0688 1023.6 43.6782 1024.22 44.0773C1024.83 44.4764 1025.54 44.6461 1026.24 44.5639C1026.68 44.6283 1027.13 44.5764 1027.56 44.4119C1027.99 44.2474 1028.38 43.9744 1028.7 43.6125C1029.03 43.2505 1029.28 42.8084 1029.45 42.318C1029.61 41.8275 1029.68 41.3008 1029.65 40.7754V39.1491C1029.12 39.9056 1028.44 40.5061 1027.68 40.9032C1026.91 41.3003 1026.08 41.4829 1025.25 41.4366C1023.23 41.4366 1021.29 40.4952 1019.86 38.8195C1018.44 37.1438 1017.63 34.8711 1017.63 32.5013C1017.63 30.1316 1018.44 27.8589 1019.86 26.1832C1021.29 24.5075 1023.23 23.5661 1025.25 23.5661C1026.08 23.5198 1026.91 23.7024 1027.68 24.0995C1028.44 24.4966 1029.12 25.0971 1029.65 25.8535V24.0665L1034.05 23.9593ZM1029.65 32.4477C1029.68 31.5928 1029.49 30.7467 1029.11 30.0182C1028.72 29.2898 1028.16 28.7124 1027.5 28.3602C1026.84 28.008 1026.1 27.8972 1025.38 28.0419C1024.66 28.1867 1023.99 28.5804 1023.47 29.1725C1022.94 29.7646 1022.58 30.5279 1022.42 31.3644C1022.27 32.2009 1022.33 33.0722 1022.61 33.8664C1022.88 34.6605 1023.34 35.3412 1023.95 35.8208C1024.55 36.3005 1025.26 36.5572 1025.99 36.5579C1026.47 36.5982 1026.95 36.5208 1027.4 36.3309C1027.84 36.141 1028.25 35.8427 1028.6 35.4554C1028.94 35.0681 1029.21 34.6002 1029.39 34.0822C1029.58 33.5641 1029.66 33.0073 1029.65 32.4477Z" fill="#394149"/>
<path d="M1035.54 31.2686C1035.54 29.4042 1036.02 27.5817 1036.92 26.0318C1037.83 24.4818 1039.11 23.2741 1040.61 22.5614C1042.11 21.8488 1043.76 21.6632 1045.35 22.0283C1046.94 22.3933 1048.41 23.2925 1049.55 24.6121C1050.7 25.9317 1051.48 27.6123 1051.8 29.4413C1052.11 31.2704 1051.95 33.1655 1051.32 34.887C1050.7 36.6084 1049.65 38.0788 1048.29 39.112C1046.94 40.1453 1045.35 40.6949 1043.73 40.6913C1042.65 40.7034 1041.58 40.4677 1040.58 39.9982C1039.58 39.5287 1038.67 38.8348 1037.91 37.9572C1037.15 37.0795 1036.54 36.0359 1036.14 34.8873C1035.73 33.7388 1035.53 32.5085 1035.54 31.2686ZM1047.29 31.2686C1047.28 30.4634 1047.05 29.6824 1046.65 29.0234C1046.24 28.3644 1045.68 27.8567 1045.03 27.564C1044.37 27.2713 1043.66 27.2065 1042.97 27.3778C1042.29 27.5491 1041.66 27.9489 1041.17 28.527C1040.69 29.1051 1040.36 29.8359 1040.23 30.6278C1040.1 31.4197 1040.18 32.2374 1040.45 32.9786C1040.73 33.7198 1041.19 34.3514 1041.77 34.7943C1042.36 35.2372 1043.04 35.4717 1043.75 35.4684C1044.22 35.4791 1044.7 35.3767 1045.14 35.1675C1045.58 34.9583 1045.98 34.6469 1046.31 34.2528C1046.64 33.8586 1046.9 33.3901 1047.07 32.8767C1047.23 32.3632 1047.3 31.8158 1047.28 31.2686H1047.29Z" fill="#394149"/>
<path d="M1053.44 18.1851C1053.44 17.5538 1053.58 16.9366 1053.82 16.4116C1054.07 15.8867 1054.42 15.4775 1054.83 15.2359C1055.23 14.9943 1055.68 14.9311 1056.12 15.0543C1056.55 15.1774 1056.95 15.4815 1057.26 15.9279C1057.58 16.3743 1057.79 16.9431 1057.88 17.5623C1057.96 18.1816 1057.92 18.8234 1057.75 19.4067C1057.58 19.99 1057.29 20.4886 1056.93 20.8393C1056.56 21.1901 1056.12 21.3773 1055.68 21.3773C1055.09 21.368 1054.53 21.0287 1054.11 20.432C1053.69 19.8354 1053.45 19.0288 1053.44 18.1851ZM1053.81 22.9375H1057.58V40.6919H1053.81V22.9375Z" fill="#394149"/>
<path d="M1077.31 31.3368C1077.36 32.5318 1077.21 33.7271 1076.87 34.8538C1076.54 35.9806 1076.01 37.0166 1075.34 37.9022C1074.66 38.7878 1073.85 39.5056 1072.94 40.0142C1072.03 40.5227 1071.05 40.8121 1070.04 40.8656C1069.19 40.9331 1068.34 40.7706 1067.55 40.3903C1066.76 40.0101 1066.05 39.4218 1065.47 38.6694V47.5448H1060.9V22.3525H1065.47V24.0404C1066.05 23.2903 1066.76 22.7047 1067.55 22.3275C1068.34 21.9503 1069.19 21.7913 1070.04 21.8624C1071.04 21.916 1072.02 22.2036 1072.93 22.7088C1073.83 23.2139 1074.65 23.9267 1075.32 24.8065C1076 25.6863 1076.52 26.7158 1076.86 27.8363C1077.2 28.9567 1077.35 30.1462 1077.31 31.3368ZM1072.74 31.3368C1072.72 30.4938 1072.49 29.6759 1072.09 28.9856C1071.68 28.2953 1071.11 27.7633 1070.45 27.4563C1069.79 27.1492 1069.07 27.0809 1068.38 27.2597C1067.69 27.4386 1067.06 27.8567 1066.57 28.4616C1066.07 29.0666 1065.74 29.8315 1065.61 30.6604C1065.48 31.4894 1065.56 32.3456 1065.84 33.1216C1066.11 33.8976 1066.58 34.559 1067.17 35.0229C1067.76 35.4867 1068.45 35.7324 1069.16 35.7291C1069.64 35.7536 1070.13 35.6557 1070.58 35.4419C1071.03 35.2281 1071.44 34.9032 1071.77 34.4885C1072.11 34.0737 1072.37 33.5786 1072.54 33.0354C1072.71 32.4922 1072.77 31.9134 1072.74 31.3368Z" fill="#394149"/>
<path d="M1089.25 34.8114C1089.25 38.9146 1086.41 40.6603 1083.39 40.6603C1082.15 40.8004 1080.92 40.4705 1079.84 39.7134C1078.75 38.9563 1077.88 37.8066 1077.32 36.4131L1080.99 33.7856C1081.14 34.4277 1081.45 34.9872 1081.89 35.3705C1082.32 35.7538 1082.84 35.9376 1083.37 35.8912C1084.38 35.8912 1084.9 35.4952 1084.9 34.7754C1084.9 32.8137 1077.96 33.8575 1077.96 27.6847C1077.96 23.7974 1080.55 21.8537 1083.48 21.8537C1084.6 21.7906 1085.71 22.1103 1086.69 22.7789C1087.67 23.4475 1088.5 24.44 1089.07 25.651L1085.39 28.0986C1085.23 27.6343 1084.97 27.2394 1084.63 26.9615C1084.29 26.6836 1083.9 26.5348 1083.5 26.5329C1082.76 26.5329 1082.32 26.8928 1082.32 27.5227C1082.32 29.5743 1089.25 28.2246 1089.25 34.8114Z" fill="#394149"/>
<path d="M1105.67 23.5591V40.1789H1101.44V38.6176C1100.96 39.3087 1100.35 39.8556 1099.66 40.2143C1098.97 40.573 1098.22 40.7334 1097.47 40.6825C1094.65 40.6825 1092.24 38.2819 1092.24 33.7996V23.5591H1096.47V33.0441C1096.43 33.4407 1096.47 33.8411 1096.58 34.2177C1096.69 34.5943 1096.87 34.9381 1097.1 35.2255C1097.33 35.5128 1097.61 35.7367 1097.92 35.8818C1098.23 36.0269 1098.57 36.0897 1098.9 36.0659C1100.42 36.0659 1101.5 34.9915 1101.5 32.7084V23.5591H1105.67Z" fill="#394149"/>
<path d="M1129.54 29.4363V40.6918H1125.35V29.9176C1125.35 28.0664 1124.69 26.9186 1123.36 26.9186C1122.03 26.9186 1121.19 28.1959 1121.19 30.3619V40.6918H1117V29.9176C1117 28.0664 1116.34 26.9186 1115.01 26.9186C1113.68 26.9186 1112.85 28.1959 1112.85 30.3619V40.6918H1108.65V22.3646H1112.85V24.0492C1113.28 23.3049 1113.85 22.7155 1114.5 22.3341C1115.15 21.9528 1115.86 21.7915 1116.56 21.8647C1117.27 21.8157 1117.98 22.0118 1118.62 22.4338C1119.25 22.8557 1119.79 23.4889 1120.19 24.2713C1120.65 23.4539 1121.26 22.8044 1121.96 22.3836C1122.66 21.9627 1123.43 21.7842 1124.2 21.8647C1127.47 21.8647 1129.54 24.8637 1129.54 29.4363Z" fill="#394149"/>
<path d="M968.397 10.4809V3H949V54.3979H968.397V46.917C964.423 46.917 960.613 44.9976 957.803 41.5811C954.993 38.1645 953.415 33.5307 953.415 28.6989C953.415 23.8672 954.993 19.2334 957.803 15.8168C960.613 12.4003 964.423 10.4809 968.397 10.4809Z" fill="#394149"/>
<path d="M968.396 9.85297V47.5447C972.353 47.5447 976.149 45.5592 978.947 42.0249C981.745 38.4906 983.317 33.6971 983.317 28.6988C983.317 23.7006 981.745 18.9071 978.947 15.3728C976.149 11.8385 972.353 9.85297 968.396 9.85297Z" fill="#394149"/>
<path d="M1134.02 23.5592C1135.66 23.5592 1137 21.6416 1137 19.2761C1137 16.9106 1135.66 14.9929 1134.02 14.9929C1132.37 14.9929 1131.03 16.9106 1131.03 19.2761C1131.03 21.6416 1132.37 23.5592 1134.02 23.5592Z" fill="#394149"/>
</g>
</svg>
